<!DOCTYPE svg PUBLIC "-//W3C//DTD SVG 1.1//EN" "http://www.w3.org/Graphics/SVG/1.1/DTD/svg11.dtd">
<svg version="1.1" xmlns="http://www.w3.org/2000/svg" xmlns:xlink="http://www.w3.org/1999/xlink" x="0px" y="0px" viewBox="0 0 1000 1000" width="20" height="20" enable-background="new 0 0 1000 1000" xml:space="preserve">
    <g transform="matrix(1 0 0 -1 0 480)"><path d="M879.6-212.2C823.3-143,795.1-86.6,795.1-43.1v199.8c0,87.1-28.8,161.1-86.5,221.9C651,439.6,581.1,470,499.2,470c-82,0-151.5-30.4-208.5-91.3c-57-60.9-85.5-134.8-85.5-221.9V-43.1c0-11.5-1.6-23.4-4.8-35.5c-3.2-12.2-8.6-25-16.3-38.4s-13.8-23.7-18.3-30.7s-13.1-18.6-25.9-34.6c-12.8-16-19.9-25.3-21.1-27.9l-17.3-23.1c0,0-4.5-7-13.5-21.1c-9-14.1-12.2-21.5-9.6-22.1c2.6-0.6,1.9-7-1.9-19.2c-3.8-12.2-2.6-18.3,3.8-18.3c11.5-21.8,38.4-32.7,80.7-32.7h174.9c0-44.8,16-83.3,48-115.3s70.8-48,116.3-48c45.5,0,84.2,16,116.3,48s48,70.5,48,115.3H845c41,0,66.6,10.2,76.9,30.7c2.6,6.4,3.8,13.1,3.8,20.2s-0.6,13.1-1.9,18.3c-1.3,5.1-4.8,12.2-10.6,21.1c-5.8,9-10.6,16-14.4,21.1S888.6-222.4,879.6-212.2z M500.1-446.6c-27.5,0-50.9,9.6-70.1,28.8s-28.8,42.9-28.8,71.1h197.9c0-28.2-9.6-51.9-28.8-71.1C551-437,527.7-446.6,500.1-446.6z M845-281.3H161h-13.5c5.1,6.4,12.8,17.3,23.1,32.7c1.3,1.3,8,9.9,20.2,25.9c12.2,16,20.2,26.6,24,31.7c3.8,5.1,10.6,15.4,20.2,30.7c9.6,15.4,16.3,28.2,20.2,38.4c3.8,10.2,7.4,22.4,10.6,36.5c3.2,14.1,4.8,28.2,4.8,42.3v199.8c0,69.2,22.1,127.8,66.3,175.8c44.2,48,98.3,72.1,162.4,72.1c64.1,0,118.5-24,163.3-72.1s67.3-106.6,67.3-175.8V-43.1c0-58.9,32.7-129.4,98-211.4c11.5-11.5,19.2-20.5,23.1-26.9H845z" fill="gray"/></g>
</svg>