<svg width="38" height="38" viewBox="0 0 48 48" xmlns="http://www.w3.org/2000/svg">
    <path d="M22.8374 29.2913C22.8374 29.2913 22.6295 30.8186 23.9497 30.8179C25.2699 30.8172 25.0606 29.3238 25.0606 29.3238L25.0592 16.0443C25.0592 16.0443 24.6073 12.4826 27.003 12.5137C29.3987 12.5477 28.9482 16.0443 28.9482 16.0443L28.9475 33.454C28.9475 33.454 29.154 37.7235 25.3356 37.7249C21.5194 37.7228 21.728 33.4427 21.728 33.4427V13.8799C21.728 13.8799 21.2422 7.13477 27.0369 7.13548C32.8317 7.13619 32.2752 13.8813 32.2752 13.8813L32.2773 28.7355C32.2773 28.7355 32.1401 30.2614 33.3882 30.2635C34.6383 30.2621 34.4983 28.7362 34.4983 28.7362L34.4983 11.6935C34.4983 11.6935 34.1872 4.94911 27.0037 4.94981C19.8181 4.9484 19.5048 11.6949 19.5048 11.6949L19.5062 35.1199C19.5062 35.1199 19.7474 40.0478 25.3363 40.0492C30.9253 40.0506 31.1671 35.1221 31.1671 35.1221L31.1686 14.9681C31.1686 14.9681 31.6501 10.2878 26.9676 10.2892C22.2823 10.2878 22.8403 14.9681 22.8403 14.9681L22.8374 29.2913Z" fill="gray"/>
</svg>
