<svg width="18" height="18" viewBox="0 0 33 33" fill="none" xmlns="http://www.w3.org/2000/svg">
<g clip-path="url(#clip0_106_2)">
<path d="M12.061 28.087C12.061 30.28 13.835 32.055 16.027 32.055C18.219 32.055 19.994 30.282 19.994 28.087C19.994 25.898 18.222 24.121 16.027 24.121C13.835 24.121 12.061 25.898 12.061 28.087ZM12.061 15.822C12.061 18.01 13.834 19.79 16.026 19.79C18.218 19.79 19.993 18.012 19.993 15.822C19.993 13.632 18.221 11.852 16.026 11.852C13.835 11.854 12.061 13.632 12.061 15.822ZM12.061 3.96499C12.061 6.15699 13.835 7.93399 16.028 7.93399C18.218 7.93399 19.993 6.15999 19.993 3.96499C19.993 1.77699 18.221 -7.55594e-06 16.028 -7.58209e-06C13.835 -7.60824e-06 12.061 1.77699 12.061 3.96499Z" fill="gray"/>
</g>
<defs>
<clipPath id="clip0_106_2">
<rect width="32.055" height="32.055" fill="white" transform="translate(0 32.055) rotate(-90)"/>
</clipPath>
</defs>	
</svg>
