<svg width="26" height="28" viewBox="0 0 40 41" fill="none" xmlns="http://www.w3.org/2000/svg">
	<path d="M20.0037 26.9686C23.8904 26.9686 27.0585 23.3606 27.0585 18.934V8.03463C27.0585 3.60807 23.8904 0 20.0037 0C16.1169 0 12.9489 3.60807 12.9489 8.03463V18.934C12.9489 23.3689 16.1169 26.9686 20.0037 26.9686ZM14.7456 8.03463C14.7456 4.73559 17.107 2.04624 20.0037 2.04624C22.9004 2.04624 25.2618 4.73559 25.2618 8.03463V18.934C25.2618 22.233 22.9004 24.9224 20.0037 24.9224C17.107 24.9224 14.7456 22.233 14.7456 18.934V8.03463Z" fill="gray"/>
	<path d="M8.9228 17.9151C8.42412 17.9151 8.02078 18.3744 8.02078 18.9424C8.02078 26.1167 12.9122 32.0216 19.1017 32.5394V38.9454H14.4156C13.9169 38.9454 13.5136 39.4048 13.5136 39.9727C13.5136 40.5406 13.9169 41 14.4156 41H25.5844C26.0831 41 26.4865 40.5406 26.4865 39.9727C26.4865 39.4048 26.0831 38.9454 25.5844 38.9454H20.8984V32.5394C27.0878 32.0132 31.9792 26.1167 31.9792 18.9424C31.9792 18.3744 31.5759 17.9151 31.0772 17.9151C30.5785 17.9151 30.1752 18.3744 30.1752 18.9424C30.1752 25.34 25.6064 30.5433 19.989 30.5433C14.3716 30.5433 9.80282 25.34 9.80282 18.9424C9.81748 18.3744 9.42148 17.9151 8.9228 17.9151Z" fill="gray"/>
</svg>
